<?xml version="1.0" encoding="UTF-8" standalone="no"?>
<svg
   xmlns:dc="http://purl.org/dc/elements/1.1/"
   xmlns:cc="http://creativecommons.org/ns#"
   xmlns:rdf="http://www.w3.org/1999/02/22-rdf-syntax-ns#"
   xmlns:svg="http://www.w3.org/2000/svg"
   xmlns="http://www.w3.org/2000/svg"
   xmlns:sodipodi="http://sodipodi.sourceforge.net/DTD/sodipodi-0.dtd"
   xmlns:inkscape="http://www.inkscape.org/namespaces/inkscape"
   version="1.1"
   id="Capa_1"
   x="0px"
   y="0px"
   viewBox="0 0 612 612"
   style="enable-background:new 0 0 612 612;"
   xml:space="preserve"
   sodipodi:docname="bin-red.svg"
   inkscape:version="1.0.1 (3bc2e813f5, 2020-09-07)"><metadata
   id="metadata1043"><rdf:RDF><cc:Work
       rdf:about=""><dc:format>image/svg+xml</dc:format><dc:type
         rdf:resource="http://purl.org/dc/dcmitype/StillImage" /><dc:title></dc:title></cc:Work></rdf:RDF></metadata><defs
   id="defs1041" /><sodipodi:namedview
   pagecolor="#ffffff"
   bordercolor="#666666"
   borderopacity="1"
   objecttolerance="10"
   gridtolerance="10"
   guidetolerance="10"
   inkscape:pageopacity="0"
   inkscape:pageshadow="2"
   inkscape:window-width="1366"
   inkscape:window-height="705"
   id="namedview1039"
   showgrid="false"
   inkscape:zoom="0.84150327"
   inkscape:cx="306"
   inkscape:cy="306"
   inkscape:window-x="-8"
   inkscape:window-y="-8"
   inkscape:window-maximized="1"
   inkscape:current-layer="Capa_1" />
<g
   id="g1006"
   style="fill:#d40000">
	<g
   id="g1004"
   style="fill:#d40000">
		<path
   d="M493.816,170.804H118.189c-11.367,0-20.582,9.214-20.582,20.58v321.509c0,54.648,44.461,99.107,99.105,99.107h218.574    c54.646,0,99.107-44.459,99.107-99.107V191.384C514.394,180.019,505.183,170.804,493.816,170.804z M256.526,488.043    c0,13.963-11.32,25.284-25.286,25.284c-13.961,0-25.286-11.321-25.286-25.284V294.76c0-13.965,11.323-25.284,25.286-25.284    c13.965,0,25.286,11.32,25.286,25.284V488.043z M406.047,488.043c0,13.963-11.32,25.284-25.286,25.284    c-13.961,0-25.286-11.321-25.286-25.284V294.76c0-13.965,11.323-25.284,25.286-25.284c13.965,0,25.286,11.32,25.286,25.284    V488.043z"
   id="path1000"
   style="fill:#d40000" />
		<path
   d="M473.195,32.022h-89.654v-7.775C383.541,10.877,372.666,0,359.297,0H252.706c-13.37,0-24.247,10.877-24.247,24.247v7.775    h-89.654c-34.33,0-62.261,27.929-62.261,62.26v39.924c0,7.14,5.788,12.929,12.931,12.929h433.054    c7.138,0,12.927-5.789,12.927-12.929V94.282C535.456,59.952,507.527,32.022,473.195,32.022z"
   id="path1002"
   style="fill:#d40000" />
	</g>
</g>
<g
   id="g1008">
</g>
<g
   id="g1010">
</g>
<g
   id="g1012">
</g>
<g
   id="g1014">
</g>
<g
   id="g1016">
</g>
<g
   id="g1018">
</g>
<g
   id="g1020">
</g>
<g
   id="g1022">
</g>
<g
   id="g1024">
</g>
<g
   id="g1026">
</g>
<g
   id="g1028">
</g>
<g
   id="g1030">
</g>
<g
   id="g1032">
</g>
<g
   id="g1034">
</g>
<g
   id="g1036">
</g>
</svg>
