<?xml version="1.0" encoding="UTF-8" standalone="no"?>
<svg
   xmlns:dc="http://purl.org/dc/elements/1.1/"
   xmlns:cc="http://creativecommons.org/ns#"
   xmlns:rdf="http://www.w3.org/1999/02/22-rdf-syntax-ns#"
   xmlns:svg="http://www.w3.org/2000/svg"
   xmlns="http://www.w3.org/2000/svg"
   xmlns:sodipodi="http://sodipodi.sourceforge.net/DTD/sodipodi-0.dtd"
   xmlns:inkscape="http://www.inkscape.org/namespaces/inkscape"
   version="1.1"
   id="Capa_1"
   x="0px"
   y="0px"
   viewBox="0 0 512 512"
   style="enable-background:new 0 0 512 512;"
   xml:space="preserve"
   sodipodi:docname="key-red.svg"
   inkscape:version="1.0.1 (3bc2e813f5, 2020-09-07)"><metadata
   id="metadata929"><rdf:RDF><cc:Work
       rdf:about=""><dc:format>image/svg+xml</dc:format><dc:type
         rdf:resource="http://purl.org/dc/dcmitype/StillImage" /><dc:title></dc:title></cc:Work></rdf:RDF></metadata><defs
   id="defs927" /><sodipodi:namedview
   pagecolor="#ffffff"
   bordercolor="#666666"
   borderopacity="1"
   objecttolerance="10"
   gridtolerance="10"
   guidetolerance="10"
   inkscape:pageopacity="0"
   inkscape:pageshadow="2"
   inkscape:window-width="1267"
   inkscape:window-height="728"
   id="namedview925"
   showgrid="false"
   inkscape:zoom="1.0058594"
   inkscape:cx="256"
   inkscape:cy="256"
   inkscape:window-x="83"
   inkscape:window-y="0"
   inkscape:window-maximized="0"
   inkscape:current-layer="Capa_1" />
<g
   id="g886"
   style="mix-blend-mode:normal;fill:#d40000;fill-opacity:1;opacity:1">
	<g
   id="g884"
   style="fill:#d40000;fill-opacity:1">
		<path
   d="M 511.998,14.958 C 511.972,6.692 505.238,0 496.993,0 h -84.861 c -3.979,0 -7.794,1.581 -10.608,4.395 L 215.74,190.178 c -58.758,-19.022 -123.538,-3.761 -167.483,40.185 -64.343,64.343 -64.343,169.037 0,233.38 64.342,64.342 169.035,64.345 233.38,0 43.946,-43.946 59.206,-108.725 40.185,-167.483 l 12.84,-12.84 48.587,-9.717 c 5.939,-1.188 10.581,-5.83 11.769,-11.769 l 8.647,-43.234 43.234,-8.647 c 5.944,-1.188 10.589,-5.838 11.772,-11.783 l 8.205,-41.246 h 30.122 c 8.285,0 15.002,-6.717 15.002,-15.002 V 15.002 c 0,-0.015 -0.002,-0.029 -0.002,-0.044 z m -30.003,112.061 h -27.431 c -7.157,0 -13.317,5.056 -14.714,12.075 l -8.654,43.501 -43.223,8.645 c -5.939,1.188 -10.581,5.83 -11.769,11.769 l -8.647,43.234 -43.233,8.647 c -2.904,0.581 -5.572,2.008 -7.666,4.103 l -22.76,22.76 c -4.214,4.214 -5.535,10.523 -3.364,16.073 19.572,50.038 7.751,106.836 -30.114,144.703 -52.637,52.636 -138.295,52.652 -190.948,0 -52.644,-52.645 -52.644,-138.304 0,-190.948 37.927,-37.926 94.741,-49.656 144.703,-30.114 5.552,2.171 11.859,0.851 16.073,-3.364 L 418.346,30.005 h 42.433 L 274.225,216.558 c -5.859,5.859 -5.859,15.357 0,21.216 2.929,2.929 6.769,4.395 10.608,4.395 3.839,0 7.679,-1.464 10.608,-4.395 L 481.995,51.221 Z"
   id="path882"
   style="fill:#d40000;fill-opacity:1" />
	</g>
</g>
<g
   id="g892"
   style="fill:#d40000;fill-opacity:1">
	<g
   id="g890"
   style="fill:#d40000;fill-opacity:1">
		<path
   d="M154.339,357.661c-17.548-17.548-46.101-17.549-63.649,0c-17.548,17.548-17.548,46.101,0,63.649    c17.547,17.548,46.101,17.549,63.649,0C171.887,403.762,171.887,375.208,154.339,357.661z M133.123,400.093    c-5.865,5.864-15.352,5.864-21.216,0c-5.864-5.865-5.863-15.352,0-21.216c5.851-5.85,15.367-5.849,21.216,0    C138.972,384.726,138.972,394.244,133.123,400.093z"
   id="path888"
   style="fill:#d40000;fill-opacity:1" />
	</g>
</g>
<g
   id="g894">
</g>
<g
   id="g896">
</g>
<g
   id="g898">
</g>
<g
   id="g900">
</g>
<g
   id="g902">
</g>
<g
   id="g904">
</g>
<g
   id="g906">
</g>
<g
   id="g908">
</g>
<g
   id="g910">
</g>
<g
   id="g912">
</g>
<g
   id="g914">
</g>
<g
   id="g916">
</g>
<g
   id="g918">
</g>
<g
   id="g920">
</g>
<g
   id="g922">
</g>
</svg>
