<?xml version="1.0" encoding="UTF-8" standalone="no"?>
<svg
   xmlns:dc="http://purl.org/dc/elements/1.1/"
   xmlns:cc="http://creativecommons.org/ns#"
   xmlns:rdf="http://www.w3.org/1999/02/22-rdf-syntax-ns#"
   xmlns:svg="http://www.w3.org/2000/svg"
   xmlns="http://www.w3.org/2000/svg"
   xmlns:sodipodi="http://sodipodi.sourceforge.net/DTD/sodipodi-0.dtd"
   xmlns:inkscape="http://www.inkscape.org/namespaces/inkscape"
   version="1.1"
   id="Capa_1"
   x="0px"
   y="0px"
   viewBox="0 0 511.999 511.999"
   style="enable-background:new 0 0 511.999 511.999;"
   xml:space="preserve"
   sodipodi:docname="view-blue.svg"
   inkscape:version="1.0.1 (3bc2e813f5, 2020-09-07)"><metadata
   id="metadata1495"><rdf:RDF><cc:Work
       rdf:about=""><dc:format>image/svg+xml</dc:format><dc:type
         rdf:resource="http://purl.org/dc/dcmitype/StillImage" /><dc:title></dc:title></cc:Work></rdf:RDF></metadata><defs
   id="defs1493" /><sodipodi:namedview
   pagecolor="#ffffff"
   bordercolor="#666666"
   borderopacity="1"
   objecttolerance="10"
   gridtolerance="10"
   guidetolerance="10"
   inkscape:pageopacity="0"
   inkscape:pageshadow="2"
   inkscape:window-width="1366"
   inkscape:window-height="705"
   id="namedview1491"
   showgrid="false"
   inkscape:zoom="1.0058613"
   inkscape:cx="255.9995"
   inkscape:cy="255.9995"
   inkscape:window-x="-8"
   inkscape:window-y="-8"
   inkscape:window-maximized="1"
   inkscape:current-layer="Capa_1" />
<g
   id="g1452">
	<g
   id="g1450"
   style="fill:#3f72af;fill-opacity:1">
		<path
   d="M508.745,246.041c-4.574-6.257-113.557-153.206-252.748-153.206S7.818,239.784,3.249,246.035    c-4.332,5.936-4.332,13.987,0,19.923c4.569,6.257,113.557,153.206,252.748,153.206s248.174-146.95,252.748-153.201    C513.083,260.028,513.083,251.971,508.745,246.041z M255.997,385.406c-102.529,0-191.33-97.533-217.617-129.418    c26.253-31.913,114.868-129.395,217.617-129.395c102.524,0,191.319,97.516,217.617,129.418    C447.361,287.923,358.746,385.406,255.997,385.406z"
   id="path1448"
   style="fill:#3f72af;fill-opacity:1" />
	</g>
</g>
<g
   id="g1458"
   style="fill:#3f72af;fill-opacity:1">
	<g
   id="g1456"
   style="fill:#3f72af;fill-opacity:1">
		<path
   d="M255.997,154.725c-55.842,0-101.275,45.433-101.275,101.275s45.433,101.275,101.275,101.275    s101.275-45.433,101.275-101.275S311.839,154.725,255.997,154.725z M255.997,323.516c-37.23,0-67.516-30.287-67.516-67.516    s30.287-67.516,67.516-67.516s67.516,30.287,67.516,67.516S293.227,323.516,255.997,323.516z"
   id="path1454"
   style="fill:#3f72af;fill-opacity:1" />
	</g>
</g>
<g
   id="g1460">
</g>
<g
   id="g1462">
</g>
<g
   id="g1464">
</g>
<g
   id="g1466">
</g>
<g
   id="g1468">
</g>
<g
   id="g1470">
</g>
<g
   id="g1472">
</g>
<g
   id="g1474">
</g>
<g
   id="g1476">
</g>
<g
   id="g1478">
</g>
<g
   id="g1480">
</g>
<g
   id="g1482">
</g>
<g
   id="g1484">
</g>
<g
   id="g1486">
</g>
<g
   id="g1488">
</g>
</svg>
