<?xml version="1.0" encoding="UTF-8" standalone="no"?>
<svg
   xmlns:dc="http://purl.org/dc/elements/1.1/"
   xmlns:cc="http://creativecommons.org/ns#"
   xmlns:rdf="http://www.w3.org/1999/02/22-rdf-syntax-ns#"
   xmlns:svg="http://www.w3.org/2000/svg"
   xmlns="http://www.w3.org/2000/svg"
   xmlns:sodipodi="http://sodipodi.sourceforge.net/DTD/sodipodi-0.dtd"
   xmlns:inkscape="http://www.inkscape.org/namespaces/inkscape"
   version="1.1"
   id="Layer_1"
   x="0px"
   y="0px"
   viewBox="0 0 512 512"
   style="enable-background:new 0 0 512 512;"
   xml:space="preserve"
   sodipodi:docname="warning-red.svg"
   inkscape:version="1.0.1 (3bc2e813f5, 2020-09-07)"><metadata
   id="metadata917"><rdf:RDF><cc:Work
       rdf:about=""><dc:format>image/svg+xml</dc:format><dc:type
         rdf:resource="http://purl.org/dc/dcmitype/StillImage" /><dc:title></dc:title></cc:Work></rdf:RDF></metadata><defs
   id="defs915" /><sodipodi:namedview
   pagecolor="#ffffff"
   bordercolor="#666666"
   borderopacity="1"
   objecttolerance="10"
   gridtolerance="10"
   guidetolerance="10"
   inkscape:pageopacity="0"
   inkscape:pageshadow="2"
   inkscape:window-width="1366"
   inkscape:window-height="705"
   id="namedview913"
   showgrid="false"
   inkscape:zoom="1.0507812"
   inkscape:cx="256"
   inkscape:cy="179.86617"
   inkscape:window-x="-8"
   inkscape:window-y="-8"
   inkscape:window-maximized="1"
   inkscape:current-layer="Layer_1" />
<g
   id="g880"
   style="fill:#ad0a0a;fill-opacity:1">
	<g
   id="g878"
   style="fill:#ad0a0a;fill-opacity:1">
		<path
   d="M501.362,383.95L320.497,51.474c-29.059-48.921-99.896-48.986-128.994,0L10.647,383.95    c-29.706,49.989,6.259,113.291,64.482,113.291h361.736C495.039,497.241,531.068,433.99,501.362,383.95z M256,437.241    c-16.538,0-30-13.462-30-30c0-16.538,13.462-30,30-30c16.538,0,30,13.462,30,30C286,423.779,272.538,437.241,256,437.241z     M286,317.241c0,16.538-13.462,30-30,30c-16.538,0-30-13.462-30-30v-150c0-16.538,13.462-30,30-30c16.538,0,30,13.462,30,30    V317.241z"
   id="path876"
   style="fill:#ad0a0a;fill-opacity:1" />
	</g>
</g>
<g
   id="g882">
</g>
<g
   id="g884">
</g>
<g
   id="g886">
</g>
<g
   id="g888">
</g>
<g
   id="g890">
</g>
<g
   id="g892">
</g>
<g
   id="g894">
</g>
<g
   id="g896">
</g>
<g
   id="g898">
</g>
<g
   id="g900">
</g>
<g
   id="g902">
</g>
<g
   id="g904">
</g>
<g
   id="g906">
</g>
<g
   id="g908">
</g>
<g
   id="g910">
</g>
</svg>
